<svg width="55" height="55" viewBox="0 0 55 55" fill="none" xmlns="http://www.w3.org/2000/svg">
<path d="M54.0833 33.1875C54.0833 29.3525 51.5512 26.1321 48.0604 25.0258C48.7487 23.7967 49.1667 22.3954 49.1667 20.8958C49.1667 17.0608 46.6346 13.8404 43.1437 12.7342C43.8321 11.505 44.25 10.1037 44.25 8.60417C44.25 3.85958 40.3904 0 35.6458 0H18.4375C13.6929 0 9.83333 3.85958 9.83333 8.60417C9.83333 10.1037 10.2512 11.505 10.9396 12.7342C7.47333 13.8404 4.91667 17.0608 4.91667 20.8958C4.91667 22.3954 5.33458 23.7967 6.02292 25.0258C2.55667 26.1321 0 29.3525 0 33.1875C0 36.285 1.64708 38.94 4.10542 40.4642C3.07292 41.8654 2.45833 43.6108 2.45833 45.4792C2.45833 50.2237 6.31792 54.0833 11.0625 54.0833H43.0208C47.7654 54.0833 51.625 50.2237 51.625 45.4792C51.625 43.6108 51.0104 41.8654 49.9779 40.4642C52.4362 38.94 54.0833 36.285 54.0833 33.1875ZM18.4375 4.91667H35.6458C37.6862 4.91667 39.3333 6.56375 39.3333 8.60417C39.3333 10.6446 37.6862 12.2917 35.6458 12.2917H18.4375C16.3971 12.2917 14.75 10.6446 14.75 8.60417C14.75 6.56375 16.3971 4.91667 18.4375 4.91667ZM13.5208 17.2083H40.5625C42.6029 17.2083 44.25 18.8554 44.25 20.8958C44.25 22.9362 42.6029 24.5833 40.5625 24.5833H13.5208C11.4804 24.5833 9.83333 22.9362 9.83333 20.8958C9.83333 18.8554 11.4804 17.2083 13.5208 17.2083ZM7.375 45.4792C7.375 43.4387 9.02208 41.7917 11.0625 41.7917H19.6667V49.1667H11.0625C9.02208 49.1667 7.375 47.5196 7.375 45.4792ZM43.0208 49.1667H34.4167V41.7917H43.0208C45.0612 41.7917 46.7083 43.4387 46.7083 45.4792C46.7083 47.5196 45.0612 49.1667 43.0208 49.1667ZM45.4792 36.875H33.9742C32.9417 34.0233 30.2375 31.9583 27.0417 31.9583C23.8458 31.9583 21.1417 34.0233 20.1092 36.875H8.60417C6.56375 36.875 4.91667 35.2279 4.91667 33.1875C4.91667 31.1471 6.56375 29.5 8.60417 29.5H45.4792C47.5196 29.5 49.1667 31.1471 49.1667 33.1875C49.1667 35.2279 47.5196 36.875 45.4792 36.875Z" fill="#FFFEFC"/>
</svg>
